<svg id="visual" viewBox="0 0 900 600" width="900" height="600" xmlns="http://www.w3.org/2000/svg" xmlns:xlink="http://www.w3.org/1999/xlink" version="1.1"><rect x="0" y="0" width="900" height="600" fill="#002233"></rect><path d="M0 487L21.5 486.7C43 486.3 86 485.7 128.8 476.2C171.7 466.7 214.3 448.3 257.2 445.5C300 442.7 343 455.3 385.8 453.5C428.7 451.7 471.3 435.3 514.2 432C557 428.7 600 438.3 642.8 454.8C685.7 471.3 728.3 494.7 771.2 493.3C814 492 857 466 878.5 453L900 440L900 601L878.5 601C857 601 814 601 771.2 601C728.3 601 685.7 601 642.8 601C600 601 557 601 514.2 601C471.3 601 428.7 601 385.8 601C343 601 300 601 257.2 601C214.3 601 171.7 601 128.8 601C86 601 43 601 21.5 601L0 601Z" fill="#0066FF" stroke-linecap="round" stroke-linejoin="miter"></path></svg>