<svg id="visual" viewBox="0 0 960 540" width="960" height="540" xmlns="http://www.w3.org/2000/svg" xmlns:xlink="http://www.w3.org/1999/xlink" version="1.1"><rect x="0" y="0" width="960" height="540" fill="#001220"></rect><defs><linearGradient id="grad1_0" x1="43.8%" y1="100%" x2="100%" y2="0%"><stop offset="14.444444444444446%" stop-color="#001220" stop-opacity="1"></stop><stop offset="85.55555555555554%" stop-color="#001220" stop-opacity="1"></stop></linearGradient></defs><defs><linearGradient id="grad2_0" x1="0%" y1="100%" x2="56.3%" y2="0%"><stop offset="14.444444444444446%" stop-color="#001220" stop-opacity="1"></stop><stop offset="85.55555555555554%" stop-color="#001220" stop-opacity="1"></stop></linearGradient></defs><g transform="translate(960, 540)"><path d="M-162 0C-137.3 -18.2 -112.5 -36.5 -98.7 -57C-84.9 -77.5 -82.1 -100.4 -67.5 -116.9C-52.9 -133.5 -26.4 -143.7 0 -154L0 0Z" fill="#FBAE3C"></path></g><g transform="translate(0, 0)"><path d="M161 0C147.8 22.5 134.6 45 123 71C111.3 97 101.2 126.5 81 140.3C60.8 154 30.4 152 0 150L0 0Z" fill="#FBAE3C"></path></g></svg>